<svg width="31" height="31" viewBox="0 0 31 31" fill="none" xmlns="http://www.w3.org/2000/svg">
<path d="M4.05666 1.22971C1.49856 1.25453 -0.753787 4.76686 2.85541 5.60059C9.1426 7.05371 14.0469 10.8137 17.8674 16.6867C18.3639 17.6736 18.7393 18.6545 18.5516 19.6414C18.2852 20.6041 18.2307 21.5789 18.3578 22.4205C18.6061 23.9342 19.3569 25.5811 20.6465 26.9857C21.9301 28.3904 23.4862 29.2744 24.9696 29.6498C26.453 30.0191 27.9363 29.9102 28.9293 29.002C29.9283 28.0877 30.0555 26.6891 29.7104 25.2662C29.3653 23.8434 28.4994 22.3115 27.228 20.925C25.9565 19.5324 24.5094 18.5334 23.1229 18.0611C22.6264 17.8916 22.1238 17.7826 21.6455 17.7584C20.8221 17.4254 20.2166 16.723 19.6717 15.9117C16.3053 9.3666 11.3041 5.08836 5.47346 1.61418C5.01209 1.38471 4.49623 1.22971 4.05666 1.22971ZM19.5082 20.3316C20.9977 24.0734 23.9463 27.0402 27.234 28.6568C26.7254 28.7477 26.0897 28.7234 25.3994 28.5539C24.128 28.233 22.7051 27.4459 21.5365 26.1744C20.368 24.8969 19.6778 23.365 19.4658 22.0633C19.4053 21.476 19.3871 20.8463 19.5082 20.3316Z" fill="#FFB950"/>
</svg>
